<?xml version="1.0" encoding="utf-8"?>
<!-- Generator: Adobe Illustrator 16.0.0, SVG Export Plug-In . SVG Version: 6.00 Build 0)  -->
<!DOCTYPE svg PUBLIC "-//W3C//DTD SVG 1.1//EN" "http://www.w3.org/Graphics/SVG/1.1/DTD/svg11.dtd">
<svg version="1.1" id="Layer_1" xmlns="http://www.w3.org/2000/svg" xmlns:xlink="http://www.w3.org/1999/xlink" x="0px" y="0px"
	 width="140px" height="140px" viewBox="0 0 140 140" enable-background="new 0 0 140 140" xml:space="preserve">
<ellipse cx="70.234" cy="69.463" rx="66.803" ry="65.616"/>
<g>
	<g>
		<path fill="#FFFFFF" stroke="#000000" stroke-width="4" stroke-miterlimit="10" d="M70.285,2.433C33.124,2.433,3,32.552,3,69.712
			c0,37.165,30.124,67.286,67.285,67.286c37.16,0,67.285-30.12,67.285-67.286C137.57,32.552,107.445,2.433,70.285,2.433z
			 M70.285,129.749c-33.105,0-60.038-26.934-60.038-60.037c0-33.101,26.933-60.037,60.038-60.037
			c33.095,0,60.032,26.936,60.032,60.037C130.317,102.815,103.38,129.749,70.285,129.749z"/>
		<g>
			<path fill="#FFFFFF" stroke="#000000" stroke-width="4" stroke-miterlimit="10" d="M70.285,14.692
				c-30.345,0-55.025,24.681-55.025,55.02c0,30.343,24.681,55.025,55.025,55.025c30.337,0,55.026-24.682,55.026-55.025
				C125.312,39.374,100.622,14.692,70.285,14.692z"/>
		</g>
	</g>
</g>
<rect x="39.127" y="41.022" transform="matrix(0.9922 -0.1249 0.1249 0.9922 -7.7174 8.8994)" fill-rule="evenodd" clip-rule="evenodd" fill="#FFFFFF" width="55.999" height="49.97"/>
<g>
	<path fill-rule="evenodd" clip-rule="evenodd" d="M101.464,96.686c0.582,2.301-0.413,2.951-2.665,3.137
		c-16.009,1.311-32.003,2.766-48.004,4.152c-3.254,0.281-6.524,0.396-9.771,0.729c-1.312,0.135-1.602-0.217-1.699-1.502
		c-0.397-5.279-0.834-10.561-1.487-15.812c-0.302-2.428,0.458-2.752,2.632-2.338c8.465,1.613,16.956,3.088,25.44,4.592
		c0.51,0.09,1.053-0.012,1.581-0.023c1.03-0.385,2.051,0.006,3.077,0.035c0.257,0.029,0.511,0.084,0.761,0.148
		c0.854,0.309,1.765,0.287,2.646,0.439c0.89,0.242,1.792,0.389,2.716,0.42c0.413,0.031,0.818,0.104,1.221,0.205
		c4.591,0.848,9.193,1.611,13.79,2.406c0.274,0.037,0.545,0.102,0.812,0.174c1.696,0.459,3.446,0.611,5.175,0.896
		c0.405,0.039,0.803,0.115,1.195,0.221C100.044,94.902,101.312,95.117,101.464,96.686z"/>
	<path fill-rule="evenodd" clip-rule="evenodd" d="M73.445,53.547c-6.381-1.667-12.938-2.402-19.399-3.643
		c-6.053-1.162-12.125-2.249-18.218-3.164c-1.953-0.294-1.502-1.604-1.713-2.695c-0.297-1.538,0.981-1.173,1.717-1.242
		c9.142-0.858,18.287-1.684,27.433-2.501c9.672-0.863,19.347-1.709,29.021-2.56c0.616-0.054,1.243-0.028,1.852-0.121
		c1.455-0.222,2.104,0.051,2.208,1.837c0.352,6.076,0.973,12.136,1.491,18.203c-0.386,1.145-1.206,0.716-1.964,0.551
		c-6.137-1.333-12.349-2.238-18.52-3.375c-0.423-0.047-0.839-0.128-1.25-0.233C75.219,54.252,74.159,54.331,73.445,53.547z"/>
	<path fill-rule="evenodd" clip-rule="evenodd" d="M98.426,63.126c0.14,1.801,0.279,3.6,0.418,5.401
		c-1.295,1.005-2.655,0.341-3.984,0.13c-1.278-0.202-2.541-0.509-3.847-0.506c-1.343-0.036-2.663-0.196-3.915-0.721
		c-3.751-0.888-7.567-1.409-11.355-2.097c-1.429-0.259-3.019-0.185-4.115-1.44c-11.251-2.021-22.499-4.054-33.753-6.053
		c-2.144-0.381-3.927-3.562-2.906-5.445c0.444-0.819,1.244-0.333,1.893-0.217c11.427,2.036,22.852,4.082,34.281,6.107
		c0.512,0.091,1.054,0.01,1.582,0.01c2.022-0.816,3.897,0.415,5.862,0.414c0.424,0.042,0.843,0.118,1.255,0.223
		c2.612,0.482,5.216,1.023,7.851,1.381c0.431,0.042,0.854,0.117,1.272,0.227c2.337,0.449,4.69,0.814,7.022,1.29
		C96.928,62.022,97.954,62.052,98.426,63.126z"/>
	<path fill-rule="evenodd" clip-rule="evenodd" d="M100.461,84.928c0.036,1.047,0.072,2.094,0.108,3.141
		c0.201,2.619-0.051,2.887-2.583,2.592c-1.543-0.18-3.067-0.49-4.602-0.719c-0.421-0.051-0.838-0.133-1.247-0.236
		c-2.732-0.15-5.304-1.186-8.016-1.463c-0.382-0.033-0.758-0.104-1.129-0.197c-1.805-0.35-3.664-0.369-5.439-0.895
		c-0.388-0.033-0.767-0.102-1.144-0.199c-2.695-1.006-5.857-0.111-8.323-2.045c-6.393-1.648-12.961-2.365-19.421-3.656
		c-3.277-0.654-6.592-1.125-9.893-1.662c-0.83-0.135-1.523-0.285-1.581-1.379c-0.072-1.395-0.292-2.781-0.481-4.458
		c5.708,0.987,11.206,1.978,16.717,2.878c5.12,0.838,10.166,2.143,15.367,2.48c1.221-0.457,2.437-0.168,3.652,0.033
		c5.735,0.947,11.438,2.086,17.182,2.992c0.293,0.027,0.581,0.088,0.865,0.166c2.388,0.561,4.846,0.734,7.238,1.275
		C98.748,83.807,99.843,83.889,100.461,84.928z"/>
	<path fill-rule="evenodd" clip-rule="evenodd" d="M99.416,73.926c0.161,1.852,0.321,3.707,0.482,5.559
		c-1.021,0.951-2.204,0.43-3.274,0.246c-8.104-1.379-16.196-2.828-24.302-4.203c-0.975-0.166-1.896-0.432-2.645-1.119
		c-5.791-1.498-11.74-2.158-17.602-3.285c-4.655-0.896-9.333-1.678-13.994-2.544c-1.513-0.281-2.827-2.904-2.161-4.893
		c0.499-1.488,1.953-0.528,2.88-0.373c10.654,1.785,21.293,3.658,31.937,5.507c0.983-0.676,2.036-0.363,3.063-0.186
		c7.623,1.317,15.234,2.679,22.858,3.986C97.676,72.795,98.786,72.885,99.416,73.926z"/>
	<path fill-rule="evenodd" clip-rule="evenodd" fill="#ED008B" d="M69.678,74.408c9.726,1.656,19.449,3.312,29.173,4.965
		c0.346,0.059,0.699,0.076,1.048,0.111c2.755,0.543,5.489,1.342,8.269,1.559c2.751,0.215,1.263,1.885,1.303,2.969
		c0.054,1.449-0.56,2.293-2.26,1.967c-2.236-0.428-4.498-0.707-6.749-1.051c-3.396-0.691-6.792-1.381-10.188-2.07
		c0.411-0.67,1.175-0.557,1.753-0.797c-0.584-0.039-1.087,0.225-1.621,0.305c-0.201,0.115-0.384,0.256-0.547,0.424
		c-7.07-0.949-14.088-2.186-21.062-3.68C69.09,77.543,69.384,75.975,69.678,74.408z"/>
	<path fill-rule="evenodd" clip-rule="evenodd" fill="#00ACEE" d="M98.426,63.126c-3.254-0.682-6.509-1.362-9.762-2.043
		c0.098-0.208,0.285-0.275,0.493-0.31c-0.484-0.042-0.973-0.112-1.413,0.183c-2.74-0.285-5.455-0.716-8.11-1.471
		c0.43-0.474,0.93-0.379,1.066-0.317c-0.414,0.081-1.209-0.219-1.989,0.193c-2.041-0.099-4.022-0.536-5.987-1.065
		c0.24-1.583,0.481-3.167,0.722-4.75c0.938-0.019,1.879-0.036,2.719,0.492c-0.433,0.463-0.93,0.392-1.093,0.321
		c0.441-0.083,1.238,0.212,2.021-0.196c6.616,0.982,13.221,2.024,19.737,3.567c0.312,0.074,0.67-0.042,1.007-0.069
		c4.239,0.773,8.469,1.599,12.72,2.297c2.117,0.348,3.137,1.195,2.611,3.524c-0.344,1.534-0.955,1.964-2.522,1.682
		C106.583,64.432,102.569,63.38,98.426,63.126z"/>
	<path fill-rule="evenodd" clip-rule="evenodd" fill="#FEEE01" d="M99.416,73.926c-9.56-1.702-19.118-3.404-28.677-5.104
		c0.295-1.643,0.59-3.285,0.886-4.927c5.247,0.892,10.525,1.6,15.7,2.88c-0.578,0.48-1.16,0.517-1.532,0.228
		c1.574-0.088,3.226,1.255,5.126,0.391c2.642,0.378,5.284,0.757,7.925,1.135c0.163,0.084,0.23,0.215,0.201,0.396
		c-0.134,0.079-0.271,0.153-0.409,0.223c0.163-0.043,0.297-0.15,0.453-0.21c3.746,0.58,7.511,1.064,11.232,1.774
		c2.706,0.514,0.63,2.387,0.784,3.611c0.167,1.338-0.494,1.512-1.79,1.244C106.042,74.893,102.72,74.457,99.416,73.926z"/>
	<path fill-rule="evenodd" clip-rule="evenodd" fill="#939393" d="M77.627,86.543c1.825,0.318,3.649,0.639,5.475,0.957
		c-0.104,0.219-0.295,0.293-0.519,0.316c0.487,0.047,0.979,0.123,1.417-0.193c2.717,0.484,5.436,0.971,8.154,1.459
		c-0.107,0.234-0.306,0.314-0.547,0.322c0.491,0.059,0.986,0.129,1.426-0.191c1.731,0.248,3.519,0.307,5.179,0.793
		c1.983,0.58,2.47-0.199,2.357-1.938c0.701,0.969,0.406,2.086,0.479,3.148c0.753,1.281,1.953,1.537,3.318,1.514
		c0.939-0.018,1.894-0.084,2.813,0.223c0.244,0.123,0.463,0.279,0.66,0.467c-0.172,2.678-1.529,3.281-3.948,2.418
		c-0.856-0.303-2.118-0.842-2.429,0.848c-0.333-1.471-1.845-0.979-2.681-1.611c0.106-0.236,0.43-0.17,0.548-0.391
		c-0.48,0.166-1.034-0.078-1.482,0.27c-1.836-0.102-3.644-0.373-5.391-0.969c0.588-0.465,1.221-0.312,1.438-0.26
		c-0.356,0.094-1.142-0.26-1.901,0.197c-4.872-0.6-9.708-1.4-14.48-2.559c0.334-0.324,0.682-0.5,1.079-0.092
		c-0.539-0.584-1.242-0.043-1.835-0.268c-0.936-0.209-1.865-0.473-2.838-0.244c-0.956,0.057-1.895,0.021-2.755-0.475
		c0.217-0.389,0.664-0.186,0.959-0.373c-0.454,0.15-0.999-0.098-1.393,0.316c-1.129,0.055-2.228-0.055-3.241-0.609
		c-0.265-1.631,0.587-3.119,0.597-4.713c2.909,0.406,5.848,0.648,8.68,1.504c-0.109,0.252-0.317,0.338-0.576,0.33
		C76.688,86.818,77.187,86.879,77.627,86.543z"/>
	<path fill-rule="evenodd" clip-rule="evenodd" fill="#93949A" d="M107.395,93.426c-1.404,0-2.81-0.037-4.212,0.008
		c-1.571,0.053-2.298-0.635-2.134-2.217c0.524,0.039,1.051,0.078,1.577,0.117c0.861,0.404,1.733,0.326,2.608,0.049
		c0.198,0.086,0.394,0.172,0.592,0.258C105.988,92.551,108.291,91.584,107.395,93.426z"/>
	<path fill-rule="evenodd" clip-rule="evenodd" fill="#8B8A91" d="M107.395,93.426c0.129-1.168-1.395-0.883-1.568-1.783
		c0.987,0.234,2.563-0.199,2.015,1.777C107.692,93.424,107.543,93.426,107.395,93.426z"/>
	<path fill-rule="evenodd" clip-rule="evenodd" fill="#8E8E91" d="M105.234,91.383c-0.882,0.664-1.752,0.695-2.608-0.049
		C103.495,91.352,104.364,91.367,105.234,91.383z"/>
	<path fill-rule="evenodd" clip-rule="evenodd" fill="#9E9FA3" d="M73.92,90.76c0.888-0.781,1.772-0.777,2.652,0.014
		c0.188,0.104,0.249,0.209,0.188,0.312c-0.062,0.105-0.124,0.156-0.188,0.156C75.646,91.316,74.702,91.475,73.92,90.76z"/>
	<path fill-rule="evenodd" clip-rule="evenodd" fill="#9E9EA2" d="M91.994,93.922c0.807-0.771,1.711-0.545,3.338-0.156
		c-1.427,0.107-2.15,0.164-2.874,0.219l-0.241,0.031L91.994,93.922z"/>
	<path fill-rule="evenodd" clip-rule="evenodd" fill="#9D9DA2" d="M70.731,90.229c0.615-0.799,1.376-0.447,2.132-0.135
		c-0.565,0.062-1.132,0.127-1.698,0.191l-0.227,0.043L70.731,90.229z"/>
	<path fill-rule="evenodd" clip-rule="evenodd" fill="#9E9EA2" d="M76.573,91.242c0-0.156,0-0.312-0.001-0.469
		c0.673,0,1.346,0,2.083,0c-0.181,0.805-0.804,0.381-1.142,0.59C77.2,91.322,76.887,91.283,76.573,91.242z"/>
	<path fill-rule="evenodd" clip-rule="evenodd" fill="#9D9DA2" d="M97.849,94.953c0.666-0.637,1.398-0.584,2.498-0.109
		c-0.73,0.107-1.147,0.168-1.563,0.23C98.472,95.033,98.16,94.992,97.849,94.953z"/>
	<path fill-rule="evenodd" clip-rule="evenodd" fill="#06B6F8" d="M77.093,54.163c-0.836,0.727-1.741,0.553-3.125,0.132
		c1.031-0.121,1.614-0.188,2.196-0.256C76.473,54.08,76.782,54.122,77.093,54.163z"/>
	<path fill-rule="evenodd" clip-rule="evenodd" fill="#FEFA00" d="M90.919,67.393c-1.852,1.453-3.532-0.376-5.329-0.4
		c0.578-0.073,1.157-0.145,1.735-0.218C88.457,67.367,89.688,67.38,90.919,67.393z"/>
	<path fill-rule="evenodd" clip-rule="evenodd" fill="#04B6F5" d="M78.711,59.362c0.838-0.73,1.743-0.556,3.115-0.133
		c-1.023,0.12-1.607,0.188-2.192,0.257C79.326,59.445,79.019,59.403,78.711,59.362z"/>
	<path fill-rule="evenodd" clip-rule="evenodd" fill="#05B6FB" d="M87.744,60.957c0.59-0.71,1.338-0.406,2.109-0.15
		c-0.396,0.092-0.793,0.184-1.189,0.276C88.357,61.041,88.05,60.999,87.744,60.957z"/>
	<path fill-rule="evenodd" clip-rule="evenodd" fill="#F90293" d="M92.515,82.268c-0.592,0.793-1.494,0.4-2.242,0.59l-0.221,0.039
		l-0.194-0.107c0.002-0.172,0.002-0.344,0-0.516C90.743,81.928,91.628,81.699,92.515,82.268z"/>
	<path fill-rule="evenodd" clip-rule="evenodd" fill="#9E9EA2" d="M77.627,86.543c-0.598,0.682-1.317,0.584-2.122,0.338
		c0.298-0.598,0.887-0.252,1.261-0.471C77.054,86.453,77.34,86.498,77.627,86.543z"/>
	<path fill-rule="evenodd" clip-rule="evenodd" fill="#9D9DA1" d="M84,87.623c-0.586,0.74-1.338,0.422-2.179,0.459
		c0.339-0.727,0.913-0.387,1.28-0.582C83.4,87.541,83.7,87.582,84,87.623z"/>
	<path fill-rule="evenodd" clip-rule="evenodd" fill="#9E9EA2" d="M93.033,89.213c-0.588,0.742-1.339,0.43-2.181,0.461
		c0.347-0.732,0.931-0.379,1.302-0.592C92.446,89.125,92.74,89.168,93.033,89.213z"/>
	<path fill-rule="evenodd" clip-rule="evenodd" fill="#E8028C" d="M92.515,82.268c-0.886,0.002-1.771,0.002-2.657,0.006
		c1.038-0.689,2.064-1.52,3.271-0.299c0.012,0.014-0.064,0.164-0.122,0.186C92.849,82.215,92.679,82.234,92.515,82.268z"/>
	<path fill-rule="evenodd" clip-rule="evenodd" fill="#E6028C" d="M87.867,81.688c-0.118-0.127-0.275-0.297-0.433-0.465
		c0.185-0.113,0.359-0.283,0.555-0.314c0.111-0.018,0.319,0.168,0.379,0.309C88.531,81.596,88.236,81.637,87.867,81.688z"/>
	<path fill-rule="evenodd" clip-rule="evenodd" fill="#00ABF4" d="M105.722,61.477c-0.918,0.873-1.442,1.333-2.202,0.843
		c-0.093-0.059-0.142-0.386-0.075-0.453C103.953,61.356,104.582,61.625,105.722,61.477z"/>
	<path fill-rule="evenodd" clip-rule="evenodd" fill="#F9F400" d="M101.419,70.61c1.132-0.591,1.65-0.043,2.487,0.218
		C103.005,71.23,102.394,71.167,101.419,70.61z"/>
	<path fill-rule="evenodd" clip-rule="evenodd" fill="#FBF601" d="M99.089,68.937c-0.533,0.484-0.883,1.373-1.928,0.867
		c0.287-1.093,1.217-0.707,1.883-0.88C99.045,68.924,99.089,68.937,99.089,68.937z"/>
	<path fill-rule="evenodd" clip-rule="evenodd" fill="#F9F400" d="M101.307,72.395c-0.161,0.068-0.367,0.215-0.579,0.227
		c-0.242,0.012-0.538-0.115-0.34-0.438c0.109-0.174,0.371-0.325,0.579-0.348C101.234,71.811,101.409,72.002,101.307,72.395z"/>
	<path fill-rule="evenodd" clip-rule="evenodd" fill="#F9F400" d="M92.768,69.727c0.894-0.21,1.423-0.401,1.925,0.095
		C94.115,70.147,93.582,70.131,92.768,69.727z"/>
</g>
</svg>
