<?xml version="1.0" encoding="utf-8"?>
<!-- Generator: Adobe Illustrator 16.0.0, SVG Export Plug-In . SVG Version: 6.00 Build 0)  -->
<!DOCTYPE svg PUBLIC "-//W3C//DTD SVG 1.1//EN" "http://www.w3.org/Graphics/SVG/1.1/DTD/svg11.dtd">
<svg version="1.1" id="Layer_1" xmlns="http://www.w3.org/2000/svg" xmlns:xlink="http://www.w3.org/1999/xlink" x="0px" y="0px"
	 width="140px" height="140px" viewBox="0 0 140 140" enable-background="new 0 0 140 140" xml:space="preserve">
<circle fill="#FFFFFF" cx="69.974" cy="70.946" r="69.526"/>
<g>
	<g>
		<path fill="#94D500" d="M70.028-0.052C31.352-0.052,0,31.295,0,69.97c0,38.679,31.352,70.028,70.028,70.028
			c38.674,0,70.027-31.348,70.027-70.028C140.055,31.295,108.702-0.052,70.028-0.052z M70.028,132.453
			c-34.455,0-62.484-28.031-62.484-62.483c0-34.45,28.03-62.483,62.484-62.483c34.444,0,62.478,28.033,62.478,62.483
			C132.506,104.422,104.472,132.453,70.028,132.453z"/>
		<g>
			<path fill="#94D500" d="M70.028,12.708c-31.583,0-57.268,25.688-57.268,57.263c0,31.58,25.686,57.268,57.268,57.268
				c31.574,0,57.269-25.688,57.269-57.268C127.297,38.395,101.602,12.708,70.028,12.708z M53.769,79.917v25.497h-6.646
				c-0.252-0.037-0.509-0.055-0.768-0.055c-4.092,0-7.411-3.321-7.411-7.42v-9.501V55.107c2.094,0.248,8.058,1.039,14.825,2.622
				V79.917z M53.769,47.307c0,0.007,0,0.013,0,0.024v4.547c-5.366-0.416-10.538-0.668-14.825-0.819v-3.728V36.536h14.825V47.307z
				 M79.958,105.272l-17.901,0.01V60.021c6.519,2.128,12.652,5.055,15.822,8.988v21.394l2.093-0.012
				c10.719-0.05,19.44-8.819,19.44-19.544c0-10.723-8.722-19.483-19.44-19.537l-2.093-0.01v0.015v4.026
				c-4.542-1.175-10.093-2.042-15.822-2.682v-1.345v-5.925v-8.928H79.87l1.097-0.021c18.482,0.577,33.324,15.794,33.324,34.406
				C114.291,89.791,98.892,105.23,79.958,105.272z"/>
		</g>
	</g>
</g>
</svg>
