<?xml version="1.0" encoding="utf-8"?>
<!-- Generator: Adobe Illustrator 16.0.0, SVG Export Plug-In . SVG Version: 6.00 Build 0)  -->
<!DOCTYPE svg PUBLIC "-//W3C//DTD SVG 1.1//EN" "http://www.w3.org/Graphics/SVG/1.1/DTD/svg11.dtd">
<svg version="1.1" id="Layer_1" xmlns="http://www.w3.org/2000/svg" xmlns:xlink="http://www.w3.org/1999/xlink" x="0px" y="0px"
	 width="140px" height="140px" viewBox="0 0 140 140" enable-background="new 0 0 140 140" xml:space="preserve">
<ellipse fill="#FFFFFF" cx="69.974" cy="69.71" rx="69.526" ry="68.29"/>
<g>
	<g>
		<path fill="#5C9F3E" d="M70.028-0.052C31.352-0.052,0,31.295,0,69.97c0,38.679,31.352,70.028,70.028,70.028
			c38.674,0,70.027-31.348,70.027-70.028C140.055,31.295,108.702-0.052,70.028-0.052z M70.028,132.453
			c-34.455,0-62.484-28.031-62.484-62.483c0-34.45,28.03-62.483,62.484-62.483c34.444,0,62.478,28.033,62.478,62.483
			C132.506,104.422,104.472,132.453,70.028,132.453z"/>
		<g>
			<path fill="#5C9F3E" d="M70.028,12.708c-31.583,0-57.268,25.688-57.268,57.263c0,31.58,25.686,57.268,57.268,57.268
				c31.574,0,57.269-25.688,57.269-57.268C127.297,38.395,101.602,12.708,70.028,12.708z"/>
		</g>
	</g>
</g>
<g>
	<path fill-rule="evenodd" clip-rule="evenodd" fill="#FFFFFF" d="M70.814,17.801c0.105,0.113,0.189,0.263,0.318,0.333
		c0.871,0.467,1.168,1.249,1.168,2.167c0.008,4.678-0.004,9.354,0.012,14.031c0.002,1.077-0.469,1.845-1.336,2.411
		c-0.521,0.34-1.674,0.122-2.273-0.392c-0.41-0.352-0.585-0.758-0.583-1.32c0.02-5.106,0.017-10.211,0.004-15.318
		c-0.002-0.693,0.222-1.2,0.863-1.515c0.135-0.066,0.208-0.263,0.306-0.397C69.801,17.801,70.309,17.801,70.814,17.801z"/>
	<path fill-rule="evenodd" clip-rule="evenodd" fill="#FFFFFF" d="M70.082,101.333c-0.78,0-1.566-0.064-2.338,0.014
		c-1.589,0.158-3.062-0.456-4.6-0.635c-0.871-0.1-1.702-0.541-2.554-0.821c-0.636-0.211-1.285-0.382-1.91-0.622
		c-0.571-0.22-1.119-0.5-1.67-0.765c-0.413-0.198-0.833-0.393-1.224-0.632c-1.313-0.8-2.694-1.521-3.9-2.461
		c-1.537-1.203-3.01-2.512-4.36-3.921c-1.064-1.108-1.968-2.391-2.821-3.68c-0.781-1.183-1.462-2.439-2.067-3.725
		c-0.57-1.204-0.986-2.483-1.468-3.731c-0.563-1.463-0.708-3.024-1.082-4.521c-0.65-2.604-0.22-5.195-0.353-7.785
		c-0.015-0.281,0.124-0.566,0.17-0.854c0.117-0.726,0.173-1.466,0.345-2.18c0.234-0.967,0.547-1.916,0.837-2.869
		c0.19-0.623,0.375-1.249,0.609-1.855c0.365-0.949,0.709-1.914,1.172-2.817c0.541-1.057,1.148-2.089,1.823-3.065
		c0.845-1.222,1.733-2.422,2.704-3.542c0.921-1.061,1.899-2.098,2.985-2.982c1.239-1.009,2.6-1.881,3.958-2.729
		c1.087-0.679,2.237-1.266,3.387-1.833c0.559-0.276,1.188-0.405,1.777-0.624c0.678-0.25,1.344-0.534,2.021-0.787
		c0.198-0.075,0.418-0.083,0.622-0.14c0.427-0.117,0.848-0.254,1.275-0.366c0.278-0.072,0.563-0.121,0.847-0.168
		c0.798-0.137,1.597-0.272,2.397-0.4c0.248-0.039,0.501-0.074,0.752-0.075c1.813-0.007,3.63-0.074,5.438,0.022
		c1.209,0.063,2.416,0.316,3.605,0.574c1.168,0.252,2.322,0.588,3.467,0.944c0.639,0.2,1.24,0.522,1.861,0.779
		c0.568,0.235,1.158,0.425,1.711,0.694c0.707,0.346,1.41,0.718,2.074,1.142c1.135,0.726,2.299,1.427,3.346,2.273
		c1.186,0.964,2.27,2.055,3.365,3.128c0.607,0.597,1.211,1.22,1.695,1.917c0.742,1.077,0.758,2.73-0.729,3.512
		c-0.658,0.346-1.906-0.09-2.482-0.714c-1.27-1.378-2.561-2.746-3.918-4.039c-0.764-0.729-1.635-1.37-2.535-1.929
		c-1.211-0.752-2.477-1.426-3.758-2.052c-0.646-0.316-1.387-0.443-2.08-0.676c-0.742-0.25-1.475-0.525-2.211-0.79
		c-0.055-0.02-0.104-0.061-0.158-0.072c-1.086-0.181-2.166-0.462-3.256-0.514c-1.83-0.086-3.665-0.048-5.496-0.011
		c-0.468,0.009-0.929,0.232-1.401,0.32c-0.397,0.073-0.81,0.069-1.207,0.14c-0.333,0.061-0.658,0.18-0.984,0.278
		c-0.073,0.022-0.134,0.086-0.208,0.105c-0.753,0.203-1.515,0.377-2.259,0.607c-0.55,0.17-1.1,0.368-1.611,0.63
		c-1.113,0.569-2.226,1.147-3.292,1.798c-0.904,0.552-1.803,1.142-2.599,1.837c-1.329,1.158-2.68,2.322-3.822,3.654
		c-1.049,1.221-1.894,2.632-2.717,4.025c-0.69,1.166-1.267,2.407-1.801,3.654c-0.304,0.709-0.427,1.5-0.628,2.255
		c-0.293,1.089-0.587,2.179-0.867,3.271c-0.053,0.206-0.062,0.424-0.062,0.637c-0.007,1.97-0.011,3.938,0.001,5.909
		c0.002,0.243,0.099,0.485,0.165,0.727c0.067,0.244,0.174,0.478,0.224,0.723c0.202,1.018,0.339,2.053,0.597,3.055
		c0.181,0.699,0.514,1.359,0.786,2.032c0.181,0.448,0.369,0.891,0.562,1.333c0.759,1.739,1.795,3.303,2.899,4.848
		c1.279,1.79,2.826,3.313,4.495,4.694c1.252,1.033,2.707,1.833,4.11,2.676c0.871,0.521,1.792,0.974,2.728,1.367
		c0.7,0.297,1.459,0.449,2.193,0.662c0.974,0.279,1.947,0.561,2.924,0.831c0.222,0.062,0.459,0.105,0.688,0.105
		c2.555,0.009,5.108,0.013,7.661-0.002c0.264-0.001,0.525-0.112,0.783-0.191c0.184-0.056,0.357-0.168,0.543-0.207
		c0.922-0.198,1.857-0.33,2.766-0.585c0.713-0.2,1.393-0.532,2.078-0.834c0.793-0.35,1.611-0.665,2.348-1.113
		c1.396-0.857,2.793-1.735,4.096-2.729c1.027-0.782,1.938-1.726,2.857-2.64c0.547-0.544,0.982-1.196,1.521-1.747
		c0.734-0.749,1.67-0.52,2.529-0.333c0.576,0.124,1.008,1.051,0.955,1.842c-0.039,0.58-0.189,1.098-0.578,1.601
		c-1.646,2.12-3.619,3.896-5.742,5.494c-1.27,0.955-2.682,1.733-4.08,2.495c-0.906,0.49-1.902,0.807-2.859,1.199
		c-0.652,0.271-1.295,0.576-1.963,0.802c-0.674,0.227-1.365,0.474-2.064,0.535c-1.596,0.141-3.117,0.801-4.762,0.635
		C71.609,101.271,70.842,101.333,70.082,101.333z"/>
	<path fill-rule="evenodd" clip-rule="evenodd" fill="#FFFFFF" d="M72.301,71.049c0.002,3.432,0.002,6.864,0.002,10.296
		c0,0.773,0.064,0.84,0.824,0.842c0.738,0.004,1.486,0.06,2.219-0.016c0.74-0.077,1.324,0.234,1.906,0.573
		c0.529,0.308,0.9,1.419,0.693,2.011c-0.123,0.359-0.248,0.73-0.449,1.046c-0.287,0.443-0.746,0.566-1.271,0.564
		c-4.115-0.015-8.229-0.007-12.343-0.016c-0.877-0.001-1.68-0.827-1.704-1.709c-0.037-1.429,0.952-2.45,2.385-2.457
		c0.897-0.004,1.794,0.012,2.691-0.002c0.729-0.007,0.875-0.151,0.876-0.849c0.002-6.845,0.002-13.689-0.003-20.534
		c-0.001-0.754-0.137-0.896-0.885-0.906c-1.013-0.015-2.028,0-3.042-0.008c-0.911-0.008-1.797-0.61-1.991-1.333
		c-0.257-0.963,0.069-1.911,0.913-2.423c0.342-0.208,0.769-0.388,1.157-0.39c3.901-0.027,7.8,0.019,11.701-0.035
		c1.088-0.015,2.199,1.144,1.945,2.348c-0.139,0.65-0.211,1.267-0.902,1.561c-0.24,0.103-0.488,0.252-0.736,0.259
		c-0.992,0.031-1.988,0.014-2.982,0.015c-0.939,0.001-1.004,0.063-1.004,0.984C72.301,64.263,72.301,67.656,72.301,71.049z"/>
	<path fill-rule="evenodd" clip-rule="evenodd" fill="#FFFFFF" d="M112.236,103.12c0.25,1.549-1.305,2.495-2.551,2.127
		c-0.549-0.165-1.041-0.586-1.51-0.954c-2.314-1.828-4.613-3.679-6.92-5.516c-1.314-1.049-2.637-2.09-3.955-3.139
		c-1.008-0.802-0.941-2.603-0.137-3.339c0.441-0.403,1.529-0.517,2.1-0.305c1.291,0.479,2.176,1.521,3.238,2.312
		c1.412,1.049,2.754,2.197,4.127,3.298c1.643,1.319,3.289,2.634,4.936,3.953C112.086,101.976,112.373,102.496,112.236,103.12z"/>
	<path fill-rule="evenodd" clip-rule="evenodd" fill="#FFFFFF" d="M43.55,93.883c-0.008,0.849-0.286,1.478-1.097,1.943
		c-0.746,0.425-1.35,1.096-2.033,1.637c-2.015,1.604-4.04,3.191-6.058,4.791c-0.971,0.77-1.922,1.563-2.906,2.316
		c-0.363,0.278-0.771,0.527-1.196,0.688c-0.461,0.175-1.664-0.318-1.915-0.756c-0.232-0.408-0.507-0.842-0.563-1.288
		c-0.104-0.844,0.438-1.462,1.03-1.963c0.961-0.813,1.983-1.557,2.967-2.343c1.688-1.35,3.355-2.729,5.056-4.062
		c1.232-0.966,2.473-1.93,3.77-2.803c1.25-0.841,2.807-0.015,2.943,1.487C43.56,93.648,43.55,93.765,43.55,93.883z"/>
	<path fill-rule="evenodd" clip-rule="evenodd" fill="#FFFFFF" d="M41.496,50.431c-0.96,0.241-1.569-0.583-2.286-1.142
		c-1.392-1.084-2.758-2.199-4.135-3.302c-1.591-1.275-3.183-2.55-4.772-3.827c-0.47-0.377-0.98-0.716-1.384-1.153
		c-0.425-0.459-0.758-1.006-1.096-1.537c-0.08-0.125-0.053-0.35-0.012-0.512c0.442-1.752,2.205-2.359,3.662-1.243
		c1.152,0.886,2.271,1.817,3.416,2.713c1.418,1.108,2.86,2.186,4.27,3.308c1.151,0.916,2.225,1.933,3.418,2.788
		c0.61,0.437,0.825,1.042,1.134,1.624c0.083,0.156,0.083,0.387,0.046,0.568C43.518,49.864,42.792,50.441,41.496,50.431z"/>
	<path fill-rule="evenodd" clip-rule="evenodd" fill="#FFFFFF" d="M96.617,48.547c-0.115-0.91,0.406-1.403,1.07-1.905
		c1.283-0.967,2.498-2.026,3.752-3.032c1.404-1.123,2.822-2.234,4.234-3.345c1.172-0.92,2.334-1.856,3.531-2.742
		c0.988-0.729,2.979-0.209,3.092,1.367c0.074,1.067-0.262,1.774-1.059,2.399c-2.291,1.791-4.555,3.609-6.834,5.416
		c-1.471,1.167-2.938,2.338-4.416,3.491c-0.943,0.734-2.795,0.291-3.279-0.792C96.598,49.154,96.643,48.835,96.617,48.547z"/>
	<path fill-rule="evenodd" clip-rule="evenodd" fill="#FFFFFF" d="M56.376,38.349c-0.058,0.938-0.571,1.788-1.262,2.001
		c-0.967,0.298-2,0.016-2.51-0.783c-0.368-0.575-0.62-1.223-0.932-1.836c-0.418-0.823-0.852-1.641-1.264-2.467
		c-0.258-0.516-0.486-1.046-0.734-1.566c-0.263-0.551-0.538-1.096-0.805-1.646c-0.201-0.414-0.401-0.829-0.592-1.247
		c-0.543-1.186-1.07-2.379-1.626-3.559c-0.22-0.467-0.589-0.881-0.724-1.365c-0.138-0.501-0.199-1.089-0.069-1.58
		c0.205-0.773,0.893-1.165,1.607-1.446c0.71-0.28,2.086,0.619,2.361,1.313c0.359,0.91,0.819,1.779,1.232,2.668
		c0.269,0.576,0.524,1.159,0.805,1.73c0.383,0.776,0.791,1.54,1.178,2.313c0.265,0.529,0.519,1.066,0.769,1.604
		c0.192,0.414,0.354,0.843,0.559,1.25c0.588,1.186,1.209,2.356,1.777,3.553C56.299,37.606,56.304,37.992,56.376,38.349z"/>
	<path fill-rule="evenodd" clip-rule="evenodd" fill="#FFFFFF" d="M47.484,119.354c-0.732,0.167-1.336-0.377-1.655-1.069
		c-0.303-0.653-0.266-1.419,0.155-2.121c0.305-0.509,0.493-1.086,0.741-1.628c0.207-0.453,0.42-0.899,0.636-1.347
		c0.458-0.946,0.909-1.9,1.385-2.84c0.425-0.836,0.884-1.653,1.318-2.482c0.204-0.392,0.384-0.791,0.576-1.187
		c0.478-0.981,0.955-1.964,1.437-2.939c0.178-0.36,0.349-0.727,0.567-1.062c0.539-0.816,2.15-0.973,2.9-0.299
		c0.922,0.83,1.011,1.63,0.404,2.788c-0.417,0.796-0.728,1.646-1.121,2.458c-0.401,0.83-0.848,1.638-1.263,2.464
		c-0.226,0.444-0.425,0.907-0.642,1.359c-0.476,0.986-0.964,1.971-1.432,2.962c-0.408,0.866-0.774,1.753-1.202,2.611
		c-0.306,0.615-0.664,1.209-1.035,1.792C48.879,119.399,48.244,119.3,47.484,119.354z"/>
	<path fill-rule="evenodd" clip-rule="evenodd" fill="#FFFFFF" d="M68.132,114.997c0-2.532-0.006-5.065,0.002-7.599
		c0.002-1.062,0.6-1.691,1.654-1.804c1.61-0.167,2.45,0.758,2.477,2.174c0.09,4.889,0.092,9.779,0.004,14.669
		c-0.027,1.48-1.211,2.417-2.811,1.934c-1.15-0.346-1.322-0.629-1.324-1.834C68.13,120.022,68.134,117.51,68.132,114.997z"/>
	<path fill-rule="evenodd" clip-rule="evenodd" fill="#FFFFFF" d="M94.398,117.34c-0.064,0.606-0.008,1.23-0.602,1.588
		c-0.332,0.197-0.725,0.382-1.098,0.402c-1.629,0.084-1.926-0.213-2.584-1.83c-0.182-0.444-0.402-0.868-0.607-1.3
		c-0.473-0.986-0.936-1.973-1.422-2.952c-0.406-0.82-0.855-1.624-1.26-2.445c-0.42-0.862-0.795-1.743-1.209-2.609
		c-0.414-0.862-0.873-1.705-1.273-2.577c-0.396-0.867-0.586-1.766-0.234-2.715c0.242-0.652,1.254-0.901,1.996-0.915
		c1.301-0.026,1.674,0.992,2.133,1.898c0.26,0.512,0.461,1.053,0.701,1.575c0.467,1.009,0.936,2.018,1.42,3.018
		c0.414,0.847,0.867,1.672,1.279,2.521c0.414,0.844,0.785,1.709,1.199,2.557c0.41,0.84,0.873,1.653,1.252,2.505
		C94.268,116.453,94.301,116.91,94.398,117.34z"/>
	<path fill-rule="evenodd" clip-rule="evenodd" fill="#FFFFFF" d="M85.898,40.422c-1.533,0.071-2.189-1.315-1.832-2.508
		c0.219-0.729,0.59-1.41,0.895-2.112c0.24-0.562,0.48-1.126,0.725-1.685c0.18-0.403,0.35-0.809,0.555-1.197
		c0.43-0.815,0.906-1.605,1.314-2.43c0.406-0.822,0.734-1.682,1.127-2.51c0.229-0.484,0.541-0.93,0.779-1.411
		c0.242-0.491,0.42-1.014,0.664-1.504c0.256-0.511,0.5-1.044,0.852-1.487c0.434-0.545,1.896-0.671,2.635-0.313
		c0.541,0.261,0.992,1.297,0.879,2.03c-0.137,0.895-0.549,1.672-1.01,2.438c-0.273,0.453-0.463,0.96-0.68,1.446
		c-0.205,0.456-0.381,0.925-0.607,1.369c-0.4,0.789-0.854,1.551-1.238,2.347c-0.428,0.881-0.801,1.789-1.201,2.681
		c-0.174,0.385-0.352,0.766-0.539,1.143c-0.494,0.991-0.924,2.024-1.516,2.955C87.318,40.277,86.629,40.55,85.898,40.422z"/>
	<path fill-rule="evenodd" clip-rule="evenodd" fill="#FFFFFF" d="M20.26,57.587c0.523,0.168,1.048,0.337,1.572,0.506
		c0.018,0.006,0.035,0.019,0.054,0.022c1.057,0.209,2.114,0.414,3.169,0.631c0.3,0.061,0.592,0.155,0.885,0.243
		c0.092,0.027,0.172,0.103,0.265,0.121c1.035,0.204,2.073,0.395,3.107,0.604c0.336,0.068,0.665,0.178,0.994,0.276
		c0.11,0.034,0.209,0.112,0.32,0.136c0.809,0.18,1.62,0.347,2.429,0.527c0.846,0.188,1.695,0.367,2.534,0.587
		c0.714,0.187,1.098,1.236,1.005,2.042c-0.16,1.39-1.037,1.972-2.427,1.721c-1.272-0.232-2.556-0.403-3.818-0.676
		c-0.951-0.206-1.877-0.529-2.814-0.8c-0.036-0.011-0.07-0.036-0.107-0.044c-1.099-0.212-2.199-0.419-3.297-0.638
		c-0.243-0.048-0.481-0.126-0.718-0.203c-0.147-0.047-0.282-0.143-0.43-0.173c-1.056-0.208-2.11-0.426-3.172-0.6
		c-0.721-0.119-1.509-0.789-1.65-1.434c-0.316-1.466,0.089-2.093,0.918-2.564c0.316-0.179,0.751-0.143,1.132-0.205
		C20.226,57.638,20.243,57.613,20.26,57.587z"/>
	<path fill-rule="evenodd" clip-rule="evenodd" fill="#FFFFFF" d="M34.501,77.179c1.231-0.136,2.058,0.921,2.052,2.082
		c-0.005,1.165-0.836,2.025-1.917,2.117c-1.135,0.095-2.243,0.508-3.364,0.786c-0.056,0.014-0.106,0.055-0.162,0.065
		c-1.072,0.208-2.144,0.412-3.215,0.619c-0.208,0.042-0.417,0.089-0.617,0.157c-0.185,0.058-0.352,0.185-0.539,0.224
		c-0.993,0.206-1.991,0.393-2.986,0.593c-1.079,0.217-2.151,0.471-3.235,0.647c-1.365,0.228-2.52-0.302-2.474-1.859
		c0.039-1.306,0.299-1.648,1.554-1.996C20.634,80.326,21.658,80,22.7,79.75c0.952-0.226,1.929-0.344,2.882-0.562
		c1.176-0.272,2.341-0.6,3.513-0.901c0.168-0.043,0.34-0.082,0.512-0.09c0.56-0.026,1.126,0.026,1.61-0.38
		c0.128-0.107,0.374-0.065,0.563-0.108c0.562-0.125,1.122-0.269,1.687-0.384C33.808,77.254,34.156,77.227,34.501,77.179z"/>
	<path fill-rule="evenodd" clip-rule="evenodd" fill="#FFFFFF" d="M92.9,97.632c0.809-0.131,1.33,0.45,1.789,1.012
		c1.223,1.499,2.365,3.067,3.594,4.56c0.637,0.776,0.857,1.57,0.574,2.527c-0.254,0.874-1.111,1.351-2.016,1.251
		c-1.064-0.118-1.652-0.752-2.205-1.566c-0.51-0.752-1.152-1.411-1.707-2.133c-0.658-0.85-1.363-1.678-1.908-2.598
		C90.127,99.176,91.084,97.632,92.9,97.632z"/>
	<path fill-rule="evenodd" clip-rule="evenodd" fill="#FFFFFF" d="M92.979,44.882c-1.424,0.187-2.367-1.486-2.049-2.58
		c0.344-1.168,1.256-1.889,1.932-2.798c0.764-1.025,1.58-2.01,2.357-3.026c1.016-1.334,3.219-1.259,3.9,0.333
		c0.365,0.858,0.025,1.584-0.506,2.25c-1.084,1.362-2.172,2.721-3.262,4.079c-0.266,0.333-0.521,0.676-0.812,0.984
		C94.088,44.604,93.592,45.015,92.979,44.882z"/>
	<path fill-rule="evenodd" clip-rule="evenodd" fill="#FFFFFF" d="M49.535,42.694c-0.157,1.442-1.26,2.453-2.49,2.127
		c-0.722-0.191-1.25-0.719-1.714-1.316c-1.096-1.408-2.221-2.795-3.348-4.179c-0.542-0.666-0.887-1.357-0.784-2.269
		c0.077-0.68,0.358-1.081,0.965-1.367c0.516-0.241,0.978-0.579,1.58-0.292c0.636,0.302,1.147,0.734,1.584,1.3
		c1.206,1.563,2.472,3.081,3.666,4.655C49.275,41.723,49.359,42.243,49.535,42.694z"/>
	<path fill-rule="evenodd" clip-rule="evenodd" fill="#FFFFFF" d="M37.169,57.492c-0.647-0.246-1.309-0.463-1.938-0.748
		c-0.96-0.433-1.935-0.852-2.837-1.389c-0.937-0.556-2.058-0.789-2.827-1.645c-0.754-0.839-0.338-2.441,0.577-3.068
		c1.109-0.759,1.911-0.088,2.797,0.288c0.932,0.394,1.84,0.851,2.749,1.299c1.001,0.495,2.052,0.924,2.972,1.544
		c0.886,0.597,1.028,2.318,0.098,3.079c-0.464,0.379-0.935,0.609-1.544,0.485C37.2,57.39,37.185,57.441,37.169,57.492z"/>
	<path fill-rule="evenodd" clip-rule="evenodd" fill="#FFFFFF" d="M31.079,91.849c-0.79-0.006-1.645-0.549-1.842-1.173
		c-0.31-0.982-0.024-2.087,0.736-2.559c0.581-0.359,1.214-0.634,1.829-0.938c0.931-0.459,1.859-0.928,2.802-1.362
		c0.817-0.377,1.628-0.874,2.49-1.011c0.521-0.084,1.193,0.344,1.685,0.697c0.297,0.213,0.461,0.706,0.543,1.104
		c0.211,1.025-0.5,1.861-1.4,2.275c-0.9,0.411-1.759,0.914-2.651,1.347c-0.806,0.391-1.628,0.745-2.451,1.1
		c-0.553,0.238-1.118,0.448-1.678,0.671C31.121,91.95,31.1,91.899,31.079,91.849z"/>
	<path fill-rule="evenodd" clip-rule="evenodd" fill="#FFFFFF" d="M30.28,73.339c-0.778,0-1.564-0.062-2.335,0.017
		c-0.844,0.086-1.557-0.209-2.263-0.568c-0.851-0.438-1.08-1.64-0.688-2.485c0.462-0.994,1.187-1.166,2.164-1.145
		c2.238,0.045,4.479,0.008,6.717,0.015c1.04,0.003,2.006,0.866,1.923,1.891c-0.044,0.548-0.358,1.181-0.756,1.562
		c-0.465,0.445-1.094,0.794-1.842,0.723c-0.481-0.047-0.973-0.011-1.459-0.011c-0.486-0.001-0.973,0-1.46,0
		C30.28,73.338,30.28,73.338,30.28,73.339z"/>
	<path fill-rule="evenodd" clip-rule="evenodd" fill="#FFFFFF" d="M41.135,104.82c-0.258-1.115,0.652-1.695,1.163-2.388
		c1.043-1.413,2.244-2.71,3.317-4.102c0.705-0.913,1.657-0.854,2.526-0.628c0.458,0.122,0.942,0.73,1.117,1.224
		c0.287,0.81,0.067,1.629-0.518,2.327c-1.083,1.29-2.145,2.6-3.214,3.902c-0.341,0.417-0.628,0.893-1.024,1.247
		c-0.828,0.737-2.521,0.597-3.126-0.295C41.15,105.776,41.207,105.255,41.135,104.82z"/>
	<path fill-rule="evenodd" clip-rule="evenodd" fill="#FFFFFF" d="M76.139,106.798c-0.248-1.632,1.43-2.421,2.783-2.132
		c0.504,0.11,1.25,1.119,1.373,1.69c0.264,1.237,0.584,2.462,0.879,3.692c0.055,0.227,0.08,0.46,0.133,0.687
		c0.123,0.557,0.209,1.127,0.393,1.664c0.43,1.253-0.436,3.038-1.98,2.896c-1.293-0.119-1.949-0.614-2.098-1.896
		c-0.031-0.276-0.172-0.544-0.27-0.812c-0.027-0.072-0.096-0.133-0.111-0.204c-0.193-0.961-0.377-1.921-0.578-2.878
		c-0.105-0.505-0.26-0.998-0.359-1.503C76.223,107.604,76.191,107.198,76.139,106.798z"/>
	<path fill-rule="evenodd" clip-rule="evenodd" fill="#FFFFFF" d="M60.373,115.273c-1.242,0.003-2.227-0.978-2.158-2.177
		c0.012-0.239,0.132-0.474,0.218-0.706c0.041-0.107,0.145-0.195,0.167-0.303c0.193-0.917,0.362-1.838,0.563-2.752
		c0.145-0.658,0.357-1.303,0.48-1.963c0.11-0.602,0.129-1.185,0.451-1.77c0.258-0.473,0.635-0.684,1.015-0.863
		c0.81-0.388,2.109,0.04,2.557,0.806c0.154,0.264,0.168,0.633,0.179,0.954c0.024,0.792,0.08,1.599-0.367,2.321
		c-0.02,0.032-0.034,0.07-0.043,0.106c-0.2,0.997-0.392,1.995-0.603,2.985c-0.075,0.356-0.191,0.702-0.292,1.051
		c-0.048,0.165-0.13,0.326-0.151,0.494C62.234,114.681,61.582,115.272,60.373,115.273z"/>
	<path fill-rule="evenodd" clip-rule="evenodd" fill="#FFFFFF" d="M81.945,29.427c-0.168,0.542-0.34,1.083-0.508,1.625
		c-0.033,0.112-0.061,0.224-0.088,0.337c-0.15,0.712-0.301,1.425-0.451,2.137c-0.203,0.956-0.389,1.917-0.621,2.865
		c-0.064,0.264-0.223,0.549-0.426,0.724c-0.494,0.424-1.01,0.927-1.734,0.771c-1.258-0.27-2.4-1.553-1.771-3.046
		c0.156-0.366,0.215-0.772,0.314-1.161c0.092-0.351,0.174-0.708,0.27-1.059c0.023-0.091,0.1-0.171,0.115-0.265
		c0.209-1.054,0.408-2.112,0.617-3.167c0.221-1.081,0.791-2.1,2.014-1.925c0.5,0.072,1.002-0.099,1.49,0.304
		c0.619,0.512,0.711,1.116,0.633,1.827C81.85,29.404,81.898,29.416,81.945,29.427z"/>
	<path fill-rule="evenodd" clip-rule="evenodd" fill="#FFFFFF" d="M60.498,27.184c1.224-0.012,1.581,0.218,1.968,1.355
		c0.183,0.541,0.262,1.117,0.391,1.677c0.039,0.168,0.08,0.336,0.125,0.503c0.112,0.405,0.233,0.807,0.34,1.213
		c0.113,0.426,0.234,0.852,0.317,1.284c0.097,0.492,0.098,1.011,0.247,1.484c0.194,0.619,0.187,1.209-0.003,1.81
		c-0.063,0.198-0.118,0.464-0.265,0.559c-0.481,0.309-0.976,0.652-1.517,0.796c-0.693,0.184-1.776-0.712-1.952-1.41
		c-0.257-1.019-0.576-2.02-0.854-3.032c-0.061-0.222-0.04-0.465-0.09-0.691c-0.104-0.466-0.231-0.927-0.353-1.389
		c-0.019-0.075-0.075-0.144-0.079-0.217c-0.061-0.971-0.453-1.933-0.09-2.915c0.176-0.477,0.483-0.833,1.012-0.927
		C59.981,27.232,60.273,27.21,60.498,27.184z"/>
</g>
</svg>
