<?xml version="1.0" encoding="utf-8"?>
<!-- Generator: Adobe Illustrator 16.0.0, SVG Export Plug-In . SVG Version: 6.00 Build 0)  -->
<!DOCTYPE svg PUBLIC "-//W3C//DTD SVG 1.1//EN" "http://www.w3.org/Graphics/SVG/1.1/DTD/svg11.dtd">
<svg version="1.1" id="Layer_1" xmlns="http://www.w3.org/2000/svg" xmlns:xlink="http://www.w3.org/1999/xlink" x="0px" y="0px"
	 width="140px" height="140px" viewBox="0 0 140 140" enable-background="new 0 0 140 140" xml:space="preserve">
<ellipse fill="#FFFFFF" cx="69.974" cy="69.71" rx="69.526" ry="68.29"/>
<g>
	<g>
		<path fill="#121848" d="M70.028-0.052C31.352-0.052,0,31.295,0,69.97c0,38.679,31.352,70.028,70.028,70.028
			c38.674,0,70.027-31.348,70.027-70.028C140.055,31.295,108.702-0.052,70.028-0.052z M70.028,132.453
			c-34.455,0-62.484-28.031-62.484-62.483c0-34.45,28.03-62.483,62.484-62.483c34.444,0,62.478,28.033,62.478,62.483
			C132.506,104.422,104.472,132.453,70.028,132.453z"/>
		<g>
			<path fill="#121848" d="M70.028,12.708c-31.583,0-57.268,25.688-57.268,57.263c0,31.58,25.686,57.268,57.268,57.268
				c31.574,0,57.269-25.688,57.269-57.268C127.297,38.395,101.602,12.708,70.028,12.708z"/>
		</g>
	</g>
</g>
<g>
	<path fill-rule="evenodd" clip-rule="evenodd" fill="#FFFFFF" d="M44.376,49.004c4.88,0,9.767-0.06,14.648,0.032
		c1.734,0.032,3.486,0.313,5.188,0.688c1.892,0.417,3.187,1.68,3.591,3.594c0.334,1.568,0.593,3.182,0.608,4.779
		c0.063,7.024,0.054,14.05,0.003,21.076c-0.009,1.463-0.19,2.943-0.483,4.381c-0.447,2.197-1.859,3.609-4.06,4.061
		c-1.503,0.309-3.049,0.572-4.577,0.578c-9.979,0.049-19.954,0.037-29.931,0.012c-1.116-0.002-2.247-0.123-3.346-0.324
		c-3.783-0.686-5.194-2.189-5.642-5.971c-0.127-1.08-0.193-2.17-0.194-3.256c-0.018-6.955-0.033-13.912,0.011-20.867
		c0.007-1.289,0.195-2.593,0.444-3.861c0.493-2.517,2.098-4.004,4.601-4.434c1.479-0.253,2.989-0.448,4.489-0.467
		C34.608,48.967,39.492,49.004,44.376,49.004z M29.278,55.997c0,8.333,0,16.534,0,24.802c10.033,0,20.012,0,30.024,0
		c0-8.289,0-16.519,0-24.802C49.286,55.997,39.332,55.997,29.278,55.997z"/>
</g>
<g>
	<path fill-rule="evenodd" clip-rule="evenodd" fill="#FFFFFF" d="M68.754,48.712c3.259,0,6.5-0.026,9.74,0.038
		c0.36,0.009,0.849,0.445,1.054,0.811c3.935,6.97,7.836,13.957,11.746,20.939c1.264,2.26,2.53,4.521,3.886,6.93
		c0.248-0.402,0.433-0.674,0.59-0.965c4.718-8.852,9.447-17.695,14.128-26.568c0.479-0.912,1.003-1.25,2.046-1.214
		c2.557,0.088,5.116,0.03,7.841,0.03c-1.349,2.461-2.623,4.791-3.9,7.118c-5.811,10.569-11.629,21.131-17.413,31.713
		c-0.395,0.721-0.802,1.025-1.643,0.984c-1.528-0.08-3.064,0.006-4.594-0.049c-0.351-0.01-0.848-0.234-1.011-0.516
		c-7.526-12.988-15.022-26-22.519-39.008"/>
</g>
</svg>
