<?xml version="1.0" encoding="utf-8"?>
<!-- Generator: Adobe Illustrator 16.0.0, SVG Export Plug-In . SVG Version: 6.00 Build 0)  -->
<!DOCTYPE svg PUBLIC "-//W3C//DTD SVG 1.1//EN" "http://www.w3.org/Graphics/SVG/1.1/DTD/svg11.dtd">
<svg version="1.1" id="Layer_1" xmlns="http://www.w3.org/2000/svg" xmlns:xlink="http://www.w3.org/1999/xlink" x="0px" y="0px"
	 width="140px" height="140px" viewBox="0 0 140 140" enable-background="new 0 0 140 140" xml:space="preserve">
<ellipse fill="#FFFFFF" cx="69.974" cy="69.71" rx="69.526" ry="68.29"/>
<g>
	<g>
		<path fill="#6F1401" d="M70.028-0.052C31.352-0.052,0,31.295,0,69.97c0,38.679,31.352,70.028,70.028,70.028
			c38.674,0,70.027-31.348,70.027-70.028C140.055,31.295,108.702-0.052,70.028-0.052z M70.028,132.453
			c-34.455,0-62.484-28.031-62.484-62.483c0-34.45,28.03-62.483,62.484-62.483c34.444,0,62.478,28.033,62.478,62.483
			C132.506,104.422,104.472,132.453,70.028,132.453z"/>
		<g>
			<path fill="#6F1401" d="M70.028,12.708c-31.583,0-57.268,25.688-57.268,57.263c0,31.58,25.686,57.268,57.268,57.268
				c31.574,0,57.269-25.688,57.269-57.268C127.297,38.395,101.602,12.708,70.028,12.708z"/>
		</g>
	</g>
</g>
<g>
	<path fill-rule="evenodd" clip-rule="evenodd" fill="#EDB009" d="M73.375,120.085c-0.828,0.029-1.656,0.058-2.484,0.086
		c-5.003-0.439-10.12-0.688-14.599-3.164c-5.302-2.929-8.804-7.324-9.346-13.654c-0.714-8.317-0.279-16.651-0.389-24.976
		c-0.096-7.288-0.062-7.289-6.845-9.498c-0.574-1.074-0.619-2.247-0.637-3.425c0.663-1.206,1.814-0.954,2.861-0.921
		c6.683,0.208,13.359,0.758,20.053,0.134c1.443-0.135,3.227-0.284,3.481,1.807c0.267,2.196-1.5,2.441-3.071,2.746
		c-4.295,0.835-5.204,1.672-5.311,6.017c-0.211,8.501-0.43,17.036,0.486,25.49c1.351,12.48,11.022,16.231,20.13,12.866
		c5.347-1.978,7.787-6.737,8.493-11.94c1.201-8.846,1.042-17.789,0.104-26.678c-0.391-3.7-1.937-5.155-5.656-5.796
		c-1.593-0.275-2.722-0.791-2.592-2.609c0.138-1.924,1.483-2.119,3.023-2.014c5.686,0.388,11.371,0.362,17.06,0.079
		c1.338-0.067,2.53,0.162,2.629,1.869c0.09,1.521-0.653,2.212-2.155,2.428c-3.944,0.57-4.778,1.567-5.481,5.617
		c-0.972,5.586-0.255,11.215-0.568,16.815c-0.135,2.389-0.121,4.788-0.138,7.184C92.342,109.951,86.124,118.85,73.375,120.085z"/>
	<path fill-rule="evenodd" clip-rule="evenodd" fill="#EDB009" d="M68.867,18.352c1.661,0.022,3.322,0.044,4.984,0.066
		c0.815,0.635,0.875,1.517,0.837,2.455c-0.471,11.94-0.925,23.88-1.406,35.82c-0.054,1.319-0.069,2.801-1.97,2.833
		c-1.896,0.033-1.951-1.341-2.006-2.738c-0.465-11.859-0.948-23.717-1.426-35.576C67.836,20.13,67.759,19.037,68.867,18.352z"/>
	<path fill-rule="evenodd" clip-rule="evenodd" fill="#EDB009" d="M53.294,35.229c0.233-2.6,2.392-2.44,3.863-3.006
		c1.286-0.495,2.411-0.03,2.863,1.498c2.337,7.898,4.702,15.788,7.041,23.686c0.316,1.071,0.487,2.249-0.884,2.687
		c-1.461,0.468-2.563-0.132-3.171-1.573c-1.345-3.186-2.688-6.372-4.044-9.553c-1.711-4.016-3.443-8.022-5.145-12.041
		C53.564,36.331,53.433,35.686,53.294,35.229z"/>
	<path fill-rule="evenodd" clip-rule="evenodd" fill="#EDB009" d="M78.871,59.593c-0.938,0.687-2.012,0.968-2.983,0.292
		c-1.082-0.753-0.702-1.949-0.402-2.958c2.226-7.507,4.503-14.999,6.734-22.504c0.591-1.987,1.559-2.981,3.79-2.094
		c3.206,1.274,3.725,1.99,2.646,4.582c-2.786,6.694-5.623,13.366-8.439,20.047C80.057,57.984,79.924,59.023,78.871,59.593z"/>
	<path fill-rule="evenodd" clip-rule="evenodd" fill="#EDB009" d="M60.297,62.138c-0.911,0.114-1.604-0.283-2.295-1.014
		c-4.871-5.159-9.788-10.275-14.701-15.395c-2.508-2.614-1.924-5.257,1.494-6.461c1.098-0.386,2.058-0.137,2.834,0.874
		c4.726,6.148,9.482,12.271,14.232,18.399c0.664,0.855,0.835,1.81,0.422,2.782C61.942,62.132,61.135,62.16,60.297,62.138z"/>
	<path fill-rule="evenodd" clip-rule="evenodd" fill="#EDB009" d="M80.882,58.137c4.488-5.801,8.966-11.612,13.475-17.399
		c1.615-2.074,2.701-2.193,4.445-0.621c2.571,2.314,2.661,3.205,0.747,5.19c-4.865,5.046-9.731,10.095-14.507,15.226
		c-1.426,1.532-2.807,2.211-4.711,1.02C80.208,60.365,79.297,59.05,80.882,58.137z"/>
</g>
</svg>
